<svg width="32" height="32" viewBox="0 0 32 32" fill="none" xmlns="http://www.w3.org/2000/svg">
<path fill-rule="evenodd" clip-rule="evenodd" d="M21.6115 8.44266C21.1803 8.44266 20.7619 8.49866 20.3635 8.60266C19.6171 6.48586 17.6003 4.96906 15.2283 4.96906C12.3219 4.96906 9.94751 7.24586 9.79151 10.1131C9.61391 10.0907 9.43391 10.0739 9.24911 10.0739C6.98751 10.0739 5.15471 11.9067 5.15471 14.1683C5.15471 16.4299 6.98751 18.2635 9.24911 18.2635H21.6115C24.3235 18.2635 26.5219 16.0651 26.5219 13.3531C26.5219 10.6411 24.3235 8.44266 21.6115 8.44266Z" fill="#D0D2D3"/>
<path fill-rule="evenodd" clip-rule="evenodd" d="M15.0482 20.1879C15.0482 20.1879 13.5642 20.9191 13.321 21.0719C13.077 21.2255 12.985 21.2959 12.865 21.4719C12.489 22.0247 12.633 22.7775 13.1858 23.1527C13.7386 23.5287 14.4906 23.3855 14.8666 22.8327C14.989 22.6527 15.0098 22.5535 15.0722 22.2487C15.1338 21.9447 15.2378 20.3159 15.2378 20.3159C15.249 20.1871 15.1642 20.1287 15.0482 20.1879Z" fill="#26A9E0"/>
<path fill-rule="evenodd" clip-rule="evenodd" d="M18.8295 20.1879C18.8295 20.1879 17.3455 20.9191 17.1023 21.0719C16.8591 21.2255 16.7663 21.2959 16.6463 21.4719C16.2711 22.0247 16.4143 22.7775 16.9671 23.1527C17.5199 23.5287 18.2719 23.3855 18.6479 22.8327C18.7703 22.6527 18.7911 22.5535 18.8535 22.2487C18.9159 21.9447 19.0199 20.3159 19.0199 20.3159C19.0311 20.1871 18.9455 20.1287 18.8295 20.1879Z" fill="#26A9E0"/>
<path fill-rule="evenodd" clip-rule="evenodd" d="M15.0482 24.1868C15.0482 24.1868 13.5642 24.9188 13.321 25.0708C13.077 25.2244 12.985 25.2948 12.865 25.4708C12.489 26.0236 12.633 26.7764 13.1858 27.1524C13.7386 27.5276 14.4906 27.3844 14.8666 26.8316C14.989 26.6516 15.0098 26.5524 15.0722 26.2476C15.1338 25.9436 15.2378 24.3156 15.2378 24.3156C15.249 24.186 15.1642 24.1276 15.0482 24.1868Z" fill="#26A9E0"/>
<path fill-rule="evenodd" clip-rule="evenodd" d="M18.8295 24.1868C18.8295 24.1868 17.3455 24.9188 17.1023 25.0708C16.8591 25.2244 16.7663 25.2948 16.6463 25.4708C16.2711 26.0236 16.4143 26.7764 16.9671 27.1524C17.5199 27.5276 18.2719 27.3844 18.6479 26.8316C18.7703 26.6516 18.7911 26.5524 18.8535 26.2476C18.9159 25.9436 19.0199 24.3156 19.0199 24.3156C19.0311 24.186 18.9455 24.1276 18.8295 24.1868Z" fill="#26A9E0"/>
</svg>
