<svg width="32" height="32" viewBox="0 0 32 32" fill="none" xmlns="http://www.w3.org/2000/svg">
<path fill-rule="evenodd" clip-rule="evenodd" d="M21.7283 8.68127C21.2971 8.68127 20.8787 8.73727 20.4795 8.84127C19.7339 6.72447 17.7171 5.20767 15.3451 5.20767C12.4387 5.20767 10.0643 7.48447 9.90828 10.3517C9.72988 10.3285 9.54988 10.3125 9.36588 10.3125C7.10428 10.3125 5.27148 12.1453 5.27148 14.4069C5.27148 16.6685 7.10428 18.5021 9.36588 18.5021H21.7283C24.4403 18.5021 26.6387 16.3037 26.6387 13.5917C26.6387 10.8789 24.4403 8.68127 21.7283 8.68127Z" fill="#D0D2D3"/>
<path fill-rule="evenodd" clip-rule="evenodd" d="M15.1814 20.4368C15.1814 20.4368 13.6974 21.168 13.4542 21.3208C13.2102 21.4744 13.1182 21.5448 12.9982 21.7208C12.623 22.2736 12.7662 23.0264 13.319 23.4016C13.8718 23.7776 14.6246 23.6344 14.9998 23.0816C15.123 22.9016 15.143 22.8024 15.2054 22.4976C15.267 22.1936 15.371 20.5648 15.371 20.5648C15.383 20.436 15.2974 20.3776 15.1814 20.4368Z" fill="#26A9E0"/>
<path fill-rule="evenodd" clip-rule="evenodd" d="M11.5291 20.4368C11.5291 20.4368 10.0443 21.168 9.80112 21.3208C9.55792 21.4744 9.46592 21.5448 9.34592 21.7208C8.97072 22.2736 9.11312 23.0264 9.66672 23.4016C10.2187 23.7776 10.9715 23.6344 11.3467 23.0816C11.4699 22.9016 11.4899 22.8024 11.5523 22.4976C11.6147 22.1936 11.7187 20.5648 11.7187 20.5648C11.7299 20.436 11.6443 20.3776 11.5291 20.4368Z" fill="#26A9E0"/>
<path fill-rule="evenodd" clip-rule="evenodd" d="M18.9627 20.4368C18.9627 20.4368 17.4787 21.168 17.2363 21.3208C16.9923 21.4744 16.9003 21.5448 16.7803 21.7208C16.4051 22.2736 16.5475 23.0264 17.1003 23.4016C17.6531 23.7776 18.4059 23.6344 18.7811 23.0816C18.9043 22.9016 18.9243 22.8024 18.9867 22.4976C19.0491 22.1936 19.1531 20.5648 19.1531 20.5648C19.1643 20.436 19.0787 20.3776 18.9627 20.4368Z" fill="#26A9E0"/>
<path fill-rule="evenodd" clip-rule="evenodd" d="M15.1814 24.436C15.1814 24.436 13.6974 25.1672 13.4542 25.32C13.2102 25.4728 13.1182 25.544 12.9982 25.72C12.623 26.2728 12.7662 27.0248 13.319 27.4008C13.8718 27.7768 14.6246 27.6336 14.9998 27.0808C15.123 26.9008 15.143 26.8016 15.2054 26.4968C15.267 26.192 15.371 24.564 15.371 24.564C15.383 24.4344 15.2974 24.376 15.1814 24.436Z" fill="#26A9E0"/>
<path fill-rule="evenodd" clip-rule="evenodd" d="M18.9627 24.436C18.9627 24.436 17.4787 25.1672 17.2363 25.32C16.9923 25.4728 16.9003 25.544 16.7803 25.72C16.4051 26.2728 16.5475 27.0248 17.1003 27.4008C17.6531 27.7768 18.4059 27.6336 18.7811 27.0808C18.9043 26.9008 18.9243 26.8016 18.9867 26.4968C19.0491 26.192 19.1531 24.564 19.1531 24.564C19.1643 24.4344 19.0787 24.376 18.9627 24.436Z" fill="#26A9E0"/>
<path fill-rule="evenodd" clip-rule="evenodd" d="M22.7791 20.4368C22.7791 20.4368 21.2951 21.168 21.0519 21.3208C20.8079 21.4744 20.7159 21.5448 20.5959 21.7208C20.2199 22.2736 20.3631 23.0264 20.9167 23.4016C21.4687 23.7776 22.2215 23.6344 22.5967 23.0816C22.7199 22.9016 22.7399 22.8024 22.8023 22.4976C22.8647 22.1936 22.9687 20.5648 22.9687 20.5648C22.9807 20.436 22.8951 20.3776 22.7791 20.4368Z" fill="#26A9E0"/>
<path fill-rule="evenodd" clip-rule="evenodd" d="M11.5291 24.436C11.5291 24.436 10.0443 25.1672 9.80112 25.32C9.55792 25.4728 9.46592 25.5432 9.34592 25.72C8.97072 26.2728 9.11312 27.0248 9.66672 27.4008C10.2187 27.7768 10.9715 27.6328 11.3467 27.0808C11.4699 26.9008 11.4899 26.8016 11.5523 26.496C11.6147 26.192 11.7187 24.564 11.7187 24.564C11.7299 24.4344 11.6443 24.3768 11.5291 24.436Z" fill="#26A9E0"/>
<path fill-rule="evenodd" clip-rule="evenodd" d="M22.7791 24.436C22.7791 24.436 21.2951 25.1672 21.0519 25.32C20.8079 25.4728 20.7159 25.5432 20.5959 25.72C20.2199 26.2728 20.3631 27.0248 20.9167 27.4008C21.4687 27.7768 22.2215 27.6328 22.5967 27.0808C22.7199 26.9008 22.7399 26.8016 22.8023 26.496C22.8647 26.192 22.9687 24.564 22.9687 24.564C22.9807 24.4344 22.8951 24.3768 22.7791 24.436Z" fill="#26A9E0"/>
</svg>
