<svg width="32" height="32" viewBox="0 0 32 32" fill="none" xmlns="http://www.w3.org/2000/svg">
<path fill-rule="evenodd" clip-rule="evenodd" d="M21.6119 8.43951C21.1807 8.43951 20.7623 8.49551 20.3631 8.60031C19.6175 6.48351 17.5999 4.96591 15.2287 4.96591C12.3223 4.96591 9.94712 7.24271 9.79192 10.1107C9.61352 10.0875 9.43352 10.0707 9.24952 10.0707C6.98792 10.0707 5.15512 11.9043 5.15512 14.1659C5.15512 16.4275 6.98792 18.2603 9.24952 18.2603H21.6119C24.3239 18.2603 26.5223 16.0627 26.5223 13.3499C26.5223 10.6379 24.3239 8.43951 21.6119 8.43951Z" fill="#D0D2D3"/>
<path fill-rule="evenodd" clip-rule="evenodd" d="M12.2009 20.1954C12.2009 20.1954 10.7169 20.9266 10.4737 21.0794C10.2297 21.2322 10.1377 21.3034 10.0177 21.4794C9.64254 22.0322 9.78574 22.785 10.3385 23.1602C10.8913 23.5362 11.6441 23.393 12.0185 22.8402C12.1417 22.6602 12.1617 22.561 12.2241 22.2562C12.2865 21.9514 12.3905 20.3234 12.3905 20.3234C12.4025 20.1938 12.3169 20.1362 12.2009 20.1954Z" fill="#26A9E0"/>
<path fill-rule="evenodd" clip-rule="evenodd" d="M16.9385 20.1954C16.9385 20.1954 15.4545 20.9266 15.2121 21.0794C14.9681 21.2322 14.8761 21.3034 14.7561 21.4794C14.3809 22.0322 14.5233 22.785 15.0761 23.1602C15.6289 23.5362 16.3817 23.393 16.7569 22.8402C16.8801 22.6602 16.9001 22.561 16.9625 22.2562C17.0249 21.9514 17.1289 20.3234 17.1289 20.3234C17.1401 20.1938 17.0545 20.1362 16.9385 20.1954Z" fill="#26A9E0"/>
<path fill-rule="evenodd" clip-rule="evenodd" d="M16.9385 24.1941C16.9385 24.1941 15.4545 24.9261 15.2121 25.0781C14.9681 25.2317 14.8761 25.3021 14.7561 25.4781C14.3809 26.0309 14.5233 26.7837 15.0761 27.1597C15.6289 27.5349 16.3817 27.3917 16.7569 26.8389C16.8801 26.6589 16.9001 26.5597 16.9625 26.2549C17.0249 25.9509 17.1289 24.3229 17.1289 24.3229C17.1401 24.1933 17.0545 24.1349 16.9385 24.1941Z" fill="#26A9E0"/>
<path fill-rule="evenodd" clip-rule="evenodd" d="M21.765 20.1954C21.765 20.1954 20.281 20.9266 20.0378 21.0794C19.7938 21.2322 19.7018 21.3034 19.5818 21.4794C19.2066 22.0322 19.3498 22.785 19.9026 23.1602C20.4554 23.5362 21.2082 23.393 21.5834 22.8402C21.7066 22.6602 21.7266 22.561 21.7882 22.2562C21.8506 21.9514 21.9546 20.3234 21.9546 20.3234C21.9666 20.1938 21.881 20.1362 21.765 20.1954Z" fill="#26A9E0"/>
<path fill-rule="evenodd" clip-rule="evenodd" d="M12.2009 24.1941C12.2009 24.1941 10.7169 24.9261 10.4737 25.0781C10.2297 25.2317 10.1377 25.3021 10.0177 25.4781C9.64254 26.0309 9.78574 26.7837 10.3385 27.1597C10.8913 27.5349 11.6441 27.3917 12.0185 26.8389C12.1417 26.6589 12.1617 26.5597 12.2241 26.2549C12.2865 25.9509 12.3905 24.3229 12.3905 24.3229C12.4025 24.1933 12.3169 24.1349 12.2009 24.1941Z" fill="#26A9E0"/>
<path fill-rule="evenodd" clip-rule="evenodd" d="M21.765 24.1941C21.765 24.1941 20.281 24.9261 20.0378 25.0781C19.7938 25.2317 19.7018 25.3021 19.5818 25.4781C19.2066 26.0309 19.3498 26.7837 19.9026 27.1597C20.4554 27.5349 21.2082 27.3917 21.5834 26.8389C21.7066 26.6589 21.7266 26.5597 21.7882 26.2549C21.8506 25.9509 21.9546 24.3229 21.9546 24.3229C21.9666 24.1933 21.881 24.1349 21.765 24.1941Z" fill="#26A9E0"/>
<path fill-rule="evenodd" clip-rule="evenodd" d="M26.3306 20.1954C26.3306 20.1954 24.8466 20.9266 24.6034 21.0794C24.3594 21.2322 24.2674 21.3034 24.1474 21.4794C23.7722 22.0322 23.9154 22.785 24.4682 23.1602C25.021 23.5362 25.7738 23.393 26.149 22.8402C26.2722 22.6602 26.2922 22.561 26.3538 22.2562C26.4162 21.9514 26.5202 20.3234 26.5202 20.3234C26.5322 20.1938 26.4466 20.1362 26.3306 20.1954Z" fill="#26A9E0"/>
<path fill-rule="evenodd" clip-rule="evenodd" d="M7.54702 20.1954C7.54702 20.1954 6.06302 20.9266 5.81982 21.0794C5.57662 21.2322 5.48382 21.3034 5.36382 21.4794C4.98862 22.0322 5.13182 22.785 5.68542 23.1602C6.23742 23.5362 6.99022 23.393 7.36542 22.8402C7.48862 22.6602 7.50862 22.561 7.57102 22.2562C7.63342 21.9514 7.73742 20.3234 7.73742 20.3234C7.74862 20.1938 7.66302 20.1362 7.54702 20.1954Z" fill="#26A9E0"/>
</svg>
