<svg width="32" height="32" viewBox="0 0 32 32" fill="none" xmlns="http://www.w3.org/2000/svg">
<path fill-rule="evenodd" clip-rule="evenodd" d="M26.8299 23.9219H5.24831C4.89071 23.9219 4.60191 24.3291 4.60191 24.8307C4.60191 25.3323 4.89071 25.7387 5.24831 25.7387H26.8299C27.1875 25.7387 27.4771 25.3323 27.4771 24.8307C27.4771 24.3291 27.1875 23.9219 26.8299 23.9219Z" fill="#FF9933"/>
<path fill-rule="evenodd" clip-rule="evenodd" d="M27.2474 9.72976C27.2474 10.4722 26.6442 11.0746 25.9026 11.0746C25.1586 11.0746 24.557 10.4722 24.557 9.72976C24.557 8.98736 25.1586 8.38416 25.9026 8.38416C26.6442 8.38416 27.2474 8.98736 27.2474 9.72976Z" fill="#FF9933"/>
<path fill-rule="evenodd" clip-rule="evenodd" d="M27.4682 16.0165C27.4682 16.7589 26.8658 17.3621 26.1234 17.3621C25.3802 17.3621 24.7786 16.7589 24.7786 16.0165C24.7786 15.2741 25.3802 14.6717 26.1234 14.6717C26.8658 14.6717 27.4682 15.2741 27.4682 16.0165Z" fill="#FF9933"/>
<path fill-rule="evenodd" clip-rule="evenodd" d="M17.6631 14.218C17.6631 14.9604 17.0607 15.5628 16.3183 15.5628C15.5751 15.5628 14.9735 14.9604 14.9735 14.218C14.9735 13.4756 15.5751 12.8724 16.3183 12.8724C17.0607 12.8724 17.6631 13.4756 17.6631 14.218Z" fill="#FF9933"/>
<path fill-rule="evenodd" clip-rule="evenodd" d="M17.8846 20.5047C17.8846 21.2471 17.2814 21.8503 16.5398 21.8503C15.7958 21.8503 15.1942 21.2471 15.1942 20.5047C15.1942 19.7623 15.7958 19.1599 16.5398 19.1599C17.2814 19.1599 17.8846 19.7623 17.8846 20.5047Z" fill="#FF9933"/>
<path fill-rule="evenodd" clip-rule="evenodd" d="M8.07951 9.72976C8.07951 10.4722 7.47631 11.0746 6.73391 11.0746C5.99071 11.0746 5.38911 10.4722 5.38911 9.72976C5.38911 8.98816 5.99071 8.38416 6.73391 8.38416C7.47631 8.38416 8.07951 8.98816 8.07951 9.72976Z" fill="#FF9933"/>
<path fill-rule="evenodd" clip-rule="evenodd" d="M8.30025 16.0165C8.30025 16.7589 7.69705 17.3621 6.95545 17.3621C6.21225 17.3621 5.61065 16.7589 5.61065 16.0165C5.61065 15.2749 6.21225 14.6717 6.95545 14.6717C7.69705 14.6717 8.30025 15.2749 8.30025 16.0165Z" fill="#FF9933"/>
</svg>
