<svg width="32" height="32" viewBox="0 0 32 32" fill="none" xmlns="http://www.w3.org/2000/svg">
<path fill-rule="evenodd" clip-rule="evenodd" d="M21.6447 8.17703C21.2135 8.17703 20.7951 8.23303 20.3967 8.33703C19.6503 6.22023 17.6335 4.70343 15.2615 4.70343C12.3551 4.70343 9.98072 6.98023 9.82552 9.84743C9.64712 9.82423 9.46712 9.80823 9.28312 9.80823C7.02152 9.80823 5.18872 11.6418 5.18872 13.9034C5.18872 16.1642 7.02152 17.9978 9.28312 17.9978H21.6447C24.3567 17.9978 26.5551 15.8002 26.5551 13.0874C26.5551 10.3754 24.3567 8.17703 21.6447 8.17703Z" fill="#D0D2D3"/>
<path fill-rule="evenodd" clip-rule="evenodd" d="M22.2026 26.0547L21.237 25.6763L21.9898 24.9643C22.0554 24.9019 22.0578 24.7971 21.9962 24.7315L21.6914 24.4099C21.6298 24.3443 21.525 24.3411 21.4594 24.4043L20.7754 25.0523L20.5946 24.1267C20.5778 24.0379 20.4906 23.9787 20.4018 23.9963L19.9674 24.0811C19.8794 24.0987 19.8202 24.1851 19.8378 24.2739L20.0186 25.2003L19.1402 24.8555C19.0554 24.8227 18.9594 24.8651 18.9266 24.9483L18.765 25.3611C18.7322 25.4443 18.7746 25.5403 18.8586 25.5731L19.8242 25.9515L19.0714 26.6651C19.0058 26.7275 19.0026 26.8323 19.065 26.8979L19.369 27.2187C19.4314 27.2843 19.5362 27.2875 19.6018 27.2251L20.2858 26.5763L20.4666 27.5027C20.4842 27.5915 20.5714 27.6491 20.6594 27.6323L21.0938 27.5475C21.1826 27.5307 21.241 27.4435 21.2234 27.3547L21.0434 26.4299L21.921 26.7723C22.0058 26.8059 22.1018 26.7643 22.1338 26.6795L22.2954 26.2683C22.3282 26.1835 22.2858 26.0875 22.2026 26.0547Z" fill="#26A9E0"/>
<path fill-rule="evenodd" clip-rule="evenodd" d="M22.2026 21.6297L21.237 21.2513L21.9898 20.5385C22.0554 20.4761 22.0578 20.3721 21.9962 20.3065L21.6914 19.9849C21.6298 19.9193 21.525 19.9161 21.4594 19.9793L20.7754 20.6273L20.5946 19.7009C20.5778 19.6129 20.4906 19.5537 20.4018 19.5713L19.9674 19.6553C19.8794 19.6737 19.8202 19.7601 19.8378 19.8481L20.0186 20.7745L19.1402 20.4305C19.0554 20.3977 18.9594 20.4401 18.9266 20.5233L18.765 20.9353C18.7322 21.0193 18.7746 21.1153 18.8586 21.1481L19.8242 21.5265L19.0714 22.2401C19.0058 22.3017 19.0026 22.4065 19.065 22.4729L19.369 22.7937C19.4314 22.8593 19.5362 22.8617 19.6018 22.8001L20.2858 22.1513L20.4666 23.0777C20.4842 23.1657 20.5714 23.2241 20.6594 23.2073L21.0938 23.1225C21.1826 23.1049 21.241 23.0185 21.2234 22.9297L21.0434 22.0041L21.921 22.3473C22.0058 22.3801 22.1018 22.3393 22.1338 22.2545L22.2954 21.8433C22.3282 21.7585 22.2858 21.6625 22.2026 21.6297Z" fill="#26A9E0"/>
<path fill-rule="evenodd" clip-rule="evenodd" d="M17.5393 26.0547L16.5737 25.6763L17.3265 24.9643C17.3921 24.9019 17.3953 24.7971 17.3329 24.7315L17.0289 24.4099C16.9665 24.3443 16.8617 24.3411 16.7961 24.4043L16.1121 25.0523L15.9313 24.1267C15.9145 24.0379 15.8273 23.9787 15.7385 23.9963L15.3041 24.0811C15.2161 24.0987 15.1569 24.1851 15.1745 24.2739L15.3553 25.2003L14.4769 24.8555C14.3921 24.8227 14.2961 24.8651 14.2633 24.9483L14.1025 25.3611C14.0689 25.4443 14.1113 25.5403 14.1953 25.5731L15.1609 25.9515L14.4081 26.6651C14.3425 26.7275 14.3401 26.8323 14.4017 26.8979L14.7065 27.2187C14.7681 27.2843 14.8729 27.2875 14.9385 27.2251L15.6225 26.5763L15.8033 27.5027C15.8217 27.5915 15.9081 27.6491 15.9961 27.6323L16.4305 27.5475C16.5201 27.5307 16.5777 27.4435 16.5601 27.3547L16.3809 26.4299L17.2577 26.7723C17.3425 26.8059 17.4385 26.7643 17.4713 26.6795L17.6329 26.2683C17.6657 26.1835 17.6233 26.0875 17.5393 26.0547Z" fill="#26A9E0"/>
<path fill-rule="evenodd" clip-rule="evenodd" d="M17.5393 21.6297L16.5737 21.2513L17.3265 20.5385C17.3921 20.4761 17.3953 20.3721 17.3329 20.3065L17.0289 19.9849C16.9665 19.9193 16.8617 19.9161 16.7961 19.9793L16.1121 20.6273L15.9313 19.7009C15.9145 19.6129 15.8273 19.5537 15.7385 19.5713L15.3041 19.6553C15.2161 19.6737 15.1569 19.7601 15.1745 19.8481L15.3553 20.7745L14.4769 20.4305C14.3921 20.3977 14.2961 20.4401 14.2633 20.5233L14.1025 20.9353C14.0689 21.0193 14.1113 21.1153 14.1953 21.1481L15.1609 21.5265L14.4081 22.2401C14.3425 22.3017 14.3401 22.4065 14.4017 22.4729L14.7065 22.7937C14.7681 22.8593 14.8729 22.8617 14.9385 22.8001L15.6225 22.1513L15.8033 23.0777C15.8217 23.1657 15.9081 23.2241 15.9961 23.2073L16.4305 23.1225C16.5201 23.1049 16.5777 23.0185 16.5601 22.9297L16.3809 22.0041L17.2577 22.3473C17.3425 22.3801 17.4385 22.3393 17.4713 22.2545L17.6329 21.8433C17.6657 21.7585 17.6233 21.6625 17.5393 21.6297Z" fill="#26A9E0"/>
<path fill-rule="evenodd" clip-rule="evenodd" d="M12.9963 21.6297L12.0307 21.2513L12.7835 20.5385C12.8491 20.4761 12.8523 20.3721 12.7899 20.3065L12.4859 19.9849C12.4235 19.9193 12.3187 19.9161 12.2531 19.9793L11.5691 20.6273L11.3883 19.7009C11.3715 19.6129 11.2843 19.5537 11.1955 19.5713L10.7611 19.6553C10.6731 19.6737 10.6139 19.7601 10.6315 19.8481L10.8123 20.7745L9.93395 20.4305C9.84915 20.3977 9.75315 20.4401 9.72035 20.5233L9.55955 20.9353C9.52595 21.0193 9.56835 21.1153 9.65235 21.1481L10.6179 21.5265L9.86515 22.2401C9.79955 22.3017 9.79635 22.4065 9.85875 22.4729L10.1627 22.7937C10.2251 22.8593 10.3299 22.8617 10.3955 22.8001L11.0795 22.1513L11.2603 23.0777C11.2787 23.1657 11.3651 23.2241 11.4531 23.2073L11.8875 23.1225C11.9763 23.1049 12.0347 23.0185 12.0171 22.9297L11.8379 22.0041L12.7147 22.3473C12.7995 22.3801 12.8955 22.3393 12.9283 22.2545L13.0891 21.8433C13.1219 21.7585 13.0803 21.6625 12.9963 21.6297Z" fill="#26A9E0"/>
<path fill-rule="evenodd" clip-rule="evenodd" d="M12.9127 26.1578L11.9471 25.7794L12.6999 25.0674C12.7655 25.005 12.7687 24.9002 12.7063 24.8346L12.4023 24.513C12.3399 24.4474 12.2351 24.445 12.1695 24.5074L11.4855 25.1554L11.3047 24.2298C11.2879 24.141 11.2007 24.0826 11.1119 24.1002L10.6775 24.1842C10.5895 24.2018 10.5303 24.2882 10.5479 24.377L10.7287 25.3034L9.8503 24.9594C9.7655 24.9258 9.6695 24.9682 9.6367 25.0522L9.4759 25.4642C9.4423 25.5474 9.4847 25.6434 9.5687 25.677L10.5343 26.0554L9.7815 26.7682C9.7159 26.8306 9.7127 26.9354 9.7751 27.001L10.0791 27.3218C10.1415 27.3874 10.2463 27.3906 10.3119 27.3282L10.9959 26.6794L11.1767 27.6058C11.1951 27.6946 11.2815 27.7522 11.3695 27.7354L11.8039 27.6506C11.8935 27.6338 11.9511 27.5466 11.9335 27.4578L11.7543 26.533L12.6311 26.8762C12.7159 26.909 12.8119 26.8674 12.8447 26.7826L13.0063 26.3714C13.0391 26.2866 12.9967 26.1906 12.9127 26.1578Z" fill="#26A9E0"/>
<path fill-rule="evenodd" clip-rule="evenodd" d="M8.63616 21.6297L7.67056 21.2513L8.42336 20.5385C8.48976 20.4761 8.49216 20.3721 8.42976 20.3065L8.12576 19.9849C8.06416 19.9193 7.95936 19.9161 7.89376 19.9793L7.20976 20.6273L7.02816 19.7009C7.01136 19.6129 6.92416 19.5537 6.83536 19.5713L6.40176 19.6553C6.31296 19.6737 6.25376 19.7601 6.27136 19.8481L6.45216 20.7745L5.57376 20.4305C5.48896 20.3977 5.39376 20.4401 5.36016 20.5233L5.19936 20.9353C5.16656 21.0193 5.20816 21.1153 5.29216 21.1481L6.25856 21.5265L5.50576 22.2401C5.43936 22.3017 5.43696 22.4065 5.49936 22.4729L5.80336 22.7937C5.86496 22.8593 5.96976 22.8617 6.03536 22.8001L6.72016 22.1513L6.90096 23.0777C6.91856 23.1657 7.00496 23.2241 7.09376 23.2073L7.52736 23.1225C7.61696 23.1049 7.67536 23.0185 7.65776 22.9297L7.47776 22.0041L8.35536 22.3473C8.43936 22.3801 8.53536 22.3393 8.56816 22.2545L8.72976 21.8433C8.76256 21.7585 8.72016 21.6625 8.63616 21.6297Z" fill="#26A9E0"/>
<path fill-rule="evenodd" clip-rule="evenodd" d="M26.4502 21.6297L25.4846 21.2513L26.2374 20.5385C26.3038 20.4761 26.3062 20.3721 26.2438 20.3065L25.9398 19.9849C25.8782 19.9193 25.7734 19.9161 25.7078 19.9793L25.0238 20.6273L24.843 19.7009C24.8254 19.6129 24.7382 19.5537 24.6502 19.5713L24.2158 19.6553C24.127 19.6737 24.0678 19.7601 24.0854 19.8481L24.2662 20.7745L23.3878 20.4305C23.3038 20.3977 23.2078 20.4401 23.1742 20.5233L23.0134 20.9353C22.9806 21.0193 23.0222 21.1153 23.1062 21.1481L24.0726 21.5265L23.3198 22.2401C23.2534 22.3017 23.251 22.4065 23.3134 22.4729L23.6174 22.7937C23.679 22.8593 23.7838 22.8617 23.8494 22.8001L24.5342 22.1513L24.715 23.0777C24.7326 23.1657 24.819 23.2241 24.9078 23.2073L25.3414 23.1225C25.431 23.1049 25.4894 23.0185 25.4718 22.9297L25.2918 22.0041L26.1694 22.3473C26.2534 22.3801 26.3494 22.3393 26.3822 22.2545L26.5438 21.8433C26.5766 21.7585 26.5342 21.6625 26.4502 21.6297Z" fill="#26A9E0"/>
</svg>
