<svg width="32" height="32" viewBox="0 0 32 32" fill="none" xmlns="http://www.w3.org/2000/svg">
<path fill-rule="evenodd" clip-rule="evenodd" d="M21.6111 8.05319C21.1807 8.05319 20.7623 8.10919 20.3631 8.21399C19.6175 6.09719 17.5999 4.57959 15.2279 4.57959C12.3215 4.57959 9.94792 6.85639 9.79192 9.72439C9.61432 9.70119 9.43352 9.68439 9.24952 9.68439C6.98792 9.68439 5.15512 11.5172 5.15512 13.7796C5.15512 16.0404 6.98792 17.874 9.24952 17.874H21.6111C24.3239 17.874 26.5223 15.6764 26.5223 12.9636C26.5223 10.2516 24.3239 8.05319 21.6111 8.05319Z" fill="#D0D2D3"/>
<path fill-rule="evenodd" clip-rule="evenodd" d="M19.8924 25.7883L18.9268 25.4099L19.6796 24.6979C19.7452 24.6355 19.7476 24.5307 19.686 24.4651L19.3812 24.1435C19.3196 24.0779 19.2148 24.0747 19.1492 24.1379L18.4652 24.7859L18.2844 23.8603C18.2676 23.7715 18.1804 23.7123 18.0916 23.7307L17.6572 23.8147C17.5692 23.8323 17.51 23.9187 17.5276 24.0075L17.7084 24.9339L16.83 24.5899C16.7452 24.5563 16.6492 24.5987 16.6164 24.6827L16.4548 25.0947C16.422 25.1779 16.4644 25.2739 16.5484 25.3067L17.514 25.6851L16.7612 26.3987C16.6956 26.4611 16.6924 26.5659 16.7548 26.6315L17.0588 26.9523C17.1212 27.0179 17.2252 27.0211 17.2916 26.9587L17.9756 26.3099L18.1564 27.2363C18.174 27.3251 18.2612 27.3827 18.3492 27.3659L18.7836 27.2811C18.8724 27.2643 18.9308 27.1771 18.9132 27.0883L18.7332 26.1635L19.6108 26.5059C19.6956 26.5395 19.7908 26.4979 19.8236 26.4131L19.9852 26.0019C20.018 25.9171 19.9756 25.8211 19.8924 25.7883Z" fill="#26A9E0"/>
<path fill-rule="evenodd" clip-rule="evenodd" d="M19.8924 21.3634L18.9268 20.985L19.6796 20.2722C19.7452 20.2106 19.7476 20.1058 19.686 20.0402L19.3812 19.7186C19.3196 19.653 19.2148 19.6498 19.1492 19.713L18.4652 20.361L18.2844 19.4346C18.2676 19.3466 18.1804 19.2874 18.0916 19.305L17.6572 19.3898C17.5692 19.4074 17.51 19.4938 17.5276 19.5818L17.7084 20.5082L16.83 20.1642C16.7452 20.1314 16.6492 20.1738 16.6164 20.257L16.4548 20.6698C16.422 20.753 16.4644 20.849 16.5484 20.8818L17.514 21.2602L16.7612 21.9738C16.6956 22.0362 16.6924 22.1402 16.7548 22.2066L17.0588 22.5274C17.1212 22.593 17.2252 22.5962 17.2916 22.5338L17.9756 21.885L18.1564 22.8114C18.174 22.8994 18.2612 22.9578 18.3492 22.941L18.7836 22.8562C18.8724 22.8386 18.9308 22.7522 18.9132 22.6634L18.7332 21.7378L19.6108 22.081C19.6956 22.1138 19.7908 22.073 19.8236 21.9882L19.9852 21.577C20.018 21.4922 19.9756 21.3962 19.8924 21.3634Z" fill="#26A9E0"/>
<path fill-rule="evenodd" clip-rule="evenodd" d="M24.4275 21.3634L23.4619 20.985L24.2147 20.2722C24.2803 20.2106 24.2827 20.1058 24.2211 20.0402L23.9163 19.7186C23.8547 19.653 23.7499 19.6498 23.6843 19.713L23.0003 20.361L22.8195 19.4346C22.8027 19.3466 22.7155 19.2874 22.6267 19.305L22.1923 19.3898C22.1043 19.4074 22.0451 19.4938 22.0627 19.5818L22.2435 20.5082L21.3651 20.1642C21.2803 20.1314 21.1843 20.1738 21.1515 20.257L20.9899 20.6698C20.9571 20.753 20.9995 20.849 21.0835 20.8818L22.0491 21.2602L21.2963 21.9738C21.2307 22.0362 21.2275 22.1402 21.2899 22.2066L21.5939 22.5274C21.6563 22.593 21.7611 22.5962 21.8267 22.5338L22.5107 21.885L22.6915 22.8114C22.7091 22.8994 22.7963 22.9578 22.8843 22.941L23.3187 22.8562C23.4075 22.8386 23.4659 22.7522 23.4483 22.6634L23.2683 21.7378L24.1459 22.081C24.2307 22.1138 24.3267 22.073 24.3595 21.9882L24.5203 21.577C24.5531 21.4922 24.5107 21.3962 24.4275 21.3634Z" fill="#26A9E0"/>
<path fill-rule="evenodd" clip-rule="evenodd" d="M15.2499 25.7493L14.2843 25.3709L15.0371 24.6581C15.1027 24.5957 15.1059 24.4909 15.0435 24.4261L14.7395 24.1045C14.6779 24.0389 14.5731 24.0357 14.5075 24.0981L13.8227 24.7469L13.6419 23.8205C13.6251 23.7325 13.5379 23.6733 13.4491 23.6909L13.0155 23.7749C12.9267 23.7933 12.8675 23.8797 12.8851 23.9677L13.0659 24.8941L12.1875 24.5501C12.1027 24.5173 12.0075 24.5597 11.9739 24.6429L11.8131 25.0549C11.7803 25.1389 11.8219 25.2349 11.9059 25.2677L12.8723 25.6461L12.1187 26.3597C12.0531 26.4213 12.0499 26.5261 12.1131 26.5925L12.4163 26.9133C12.4787 26.9789 12.5835 26.9813 12.6491 26.9197L13.3339 26.2701L13.5147 27.1965C13.5315 27.2853 13.6187 27.3437 13.7075 27.3269L14.1411 27.2421C14.2299 27.2245 14.2883 27.1381 14.2715 27.0493L14.0907 26.1237L14.9683 26.4669C15.0531 26.4997 15.1491 26.4589 15.1819 26.3741L15.3435 25.9629C15.3763 25.8773 15.3339 25.7821 15.2499 25.7493Z" fill="#26A9E0"/>
<path fill-rule="evenodd" clip-rule="evenodd" d="M15.2499 21.3235L14.2843 20.9459L15.0371 20.2331C15.1027 20.1707 15.1059 20.0659 15.0435 20.0003L14.7395 19.6795C14.6779 19.6139 14.5731 19.6107 14.5075 19.6731L13.8227 20.3211L13.6419 19.3955C13.6251 19.3067 13.5379 19.2483 13.4491 19.2659L13.0155 19.3499C12.9267 19.3675 12.8675 19.4539 12.8851 19.5427L13.0659 20.4691L12.1875 20.1251C12.1027 20.0915 12.0075 20.1339 11.9739 20.2179L11.8131 20.6299C11.7803 20.7139 11.8219 20.8091 11.9059 20.8427L12.8723 21.2211L12.1187 21.9339C12.0531 21.9963 12.0499 22.1011 12.1131 22.1667L12.4163 22.4875C12.4787 22.5531 12.5835 22.5563 12.6491 22.4939L13.3339 21.8451L13.5147 22.7715C13.5315 22.8603 13.6187 22.9187 13.7075 22.9011L14.1411 22.8163C14.2299 22.7995 14.2883 22.7123 14.2715 22.6235L14.0907 21.6987L14.9683 22.0419C15.0531 22.0747 15.1491 22.0331 15.1819 21.9483L15.3435 21.5371C15.3763 21.4523 15.3339 21.3563 15.2499 21.3235Z" fill="#26A9E0"/>
<path fill-rule="evenodd" clip-rule="evenodd" d="M10.7604 21.3235L9.79476 20.9459L10.5476 20.2331C10.6132 20.1707 10.6164 20.0659 10.554 20.0003L10.25 19.6795C10.1876 19.6139 10.0836 19.6107 10.018 19.6731L9.33316 20.3211L9.15236 19.3955C9.13556 19.3067 9.04836 19.2483 8.95956 19.2659L8.52596 19.3499C8.43716 19.3675 8.37796 19.4539 8.39556 19.5427L8.57636 20.4691L7.69796 20.1251C7.61316 20.0915 7.51796 20.1339 7.48436 20.2179L7.32356 20.6299C7.28996 20.7139 7.33236 20.8091 7.41636 20.8427L8.38196 21.2211L7.62916 21.9339C7.56356 21.9963 7.56036 22.1011 7.62276 22.1667L7.92676 22.4875C7.98916 22.5531 8.09396 22.5563 8.15956 22.4939L8.84436 21.8451L9.02516 22.7715C9.04196 22.8603 9.12916 22.9187 9.21796 22.9011L9.65156 22.8163C9.74036 22.7995 9.79876 22.7123 9.78116 22.6235L9.60116 21.6987L10.4788 22.0419C10.5636 22.0747 10.6596 22.0331 10.6924 21.9483L10.854 21.5371C10.8868 21.4523 10.8444 21.3563 10.7604 21.3235Z" fill="#26A9E0"/>
</svg>
