<svg width="32" height="32" viewBox="0 0 32 32" fill="none" xmlns="http://www.w3.org/2000/svg">
<path fill-rule="evenodd" clip-rule="evenodd" d="M21.8447 8.75049C21.4135 8.75049 20.9951 8.80649 20.5967 8.91049C19.8503 6.79369 17.8335 5.27689 15.4615 5.27689C12.5551 5.27689 10.1807 7.55369 10.0255 10.4209C9.84712 10.3985 9.66712 10.3817 9.48232 10.3817C7.22152 10.3817 5.38792 12.2153 5.38792 14.4769C5.38792 16.7377 7.22152 18.5713 9.48232 18.5713H21.8447C24.5567 18.5713 26.7551 16.3737 26.7551 13.6609C26.7551 10.9489 24.5567 8.75049 21.8447 8.75049Z" fill="#D0D2D3"/>
<path fill-rule="evenodd" clip-rule="evenodd" d="M17.9678 26.5883L17.0022 26.2099L17.755 25.4979C17.8214 25.4355 17.8238 25.3307 17.7614 25.2651L17.4574 24.9435C17.3958 24.8779 17.291 24.8747 17.2254 24.9379L16.5406 25.5859L16.3606 24.6603C16.343 24.5715 16.2558 24.5123 16.1678 24.5307L15.7334 24.6147C15.6446 24.6323 15.5862 24.7187 15.603 24.8075L15.7838 25.7339L14.9054 25.3899C14.8214 25.3563 14.7254 25.3987 14.6926 25.4827L14.531 25.8947C14.4982 25.9779 14.5398 26.0739 14.6246 26.1067L15.5902 26.4851L14.8366 27.1987C14.771 27.2611 14.7686 27.3659 14.831 27.4315L15.135 27.7523C15.1966 27.8179 15.3014 27.8211 15.3678 27.7587L16.0518 27.1099L16.2326 28.0363C16.2502 28.1251 16.3366 28.1827 16.4254 28.1659L16.8598 28.0811C16.9486 28.0643 17.007 27.9771 16.9894 27.8883L16.8094 26.9635L17.687 27.3059C17.771 27.3395 17.867 27.2979 17.8998 27.2131L18.0614 26.8019C18.0942 26.7171 18.0518 26.6211 17.9678 26.5883Z" fill="#26A9E0"/>
<path fill-rule="evenodd" clip-rule="evenodd" d="M17.9678 22.1634L17.0022 21.785L17.755 21.0722C17.8214 21.0106 17.8238 20.9058 17.7614 20.8402L17.4574 20.5186C17.3958 20.453 17.291 20.4498 17.2254 20.513L16.5406 21.161L16.3606 20.2346C16.343 20.1466 16.2558 20.0874 16.1678 20.105L15.7334 20.1898C15.6446 20.2074 15.5862 20.2938 15.603 20.3818L15.7838 21.3082L14.9054 20.9642C14.8214 20.9314 14.7254 20.9738 14.6926 21.057L14.531 21.4698C14.4982 21.553 14.5398 21.649 14.6246 21.6818L15.5902 22.0602L14.8366 22.7738C14.771 22.8362 14.7686 22.9402 14.831 23.0066L15.135 23.3274C15.1966 23.393 15.3014 23.3962 15.3678 23.3338L16.0518 22.685L16.2326 23.6114C16.2502 23.6994 16.3366 23.7578 16.4254 23.741L16.8598 23.6562C16.9486 23.6386 17.007 23.5522 16.9894 23.4634L16.8094 22.5378L17.687 22.881C17.771 22.9138 17.867 22.873 17.8998 22.7882L18.0614 22.377C18.0942 22.2922 18.0518 22.1962 17.9678 22.1634Z" fill="#26A9E0"/>
</svg>
