<svg width="32" height="32" viewBox="0 0 32 32" fill="none" xmlns="http://www.w3.org/2000/svg">
<path fill-rule="evenodd" clip-rule="evenodd" d="M16.9768 25.4742L15.3296 24.8286L16.6144 23.6126C16.7264 23.507 16.7312 23.3278 16.6248 23.2166L16.1064 22.6686C16.0008 22.5574 15.8224 22.5526 15.7104 22.6582L14.5424 23.7638L14.2352 22.1854C14.2056 22.0334 14.0576 21.9334 13.9064 21.963L13.1656 22.1078C13.0144 22.1374 12.9144 22.2854 12.944 22.4366L13.252 24.0158L11.7544 23.4294C11.6104 23.3726 11.4472 23.4446 11.3912 23.5878L11.116 24.291C11.0592 24.4334 11.1312 24.5966 11.2752 24.6542L12.9216 25.2982L11.6376 26.5142C11.5256 26.6206 11.5208 26.7982 11.6264 26.911L12.1456 27.4582C12.2512 27.5702 12.4296 27.575 12.5416 27.4694L13.7096 26.363L14.0168 27.9422C14.0464 28.0934 14.1944 28.1926 14.3456 28.163L15.0864 28.0198C15.2376 27.9902 15.3376 27.8422 15.308 27.691L15.0008 26.1118L16.4976 26.6982C16.6416 26.755 16.804 26.6838 16.8608 26.5398L17.136 25.8366C17.192 25.6926 17.1208 25.5294 16.9768 25.4742Z" fill="#26A9E0"/>
<path fill-rule="evenodd" clip-rule="evenodd" d="M19.2115 11.1477C18.7803 11.1477 18.3627 11.2037 17.9635 11.3085C17.2171 9.19087 15.2003 7.67407 12.8283 7.67407C9.92194 7.67407 7.54754 9.95087 7.39234 12.8189C7.21394 12.7957 7.03394 12.7789 6.84994 12.7789C4.58834 12.7789 2.75474 14.6125 2.75474 16.8741C2.75474 19.1349 4.58834 20.9685 6.84994 20.9685H19.2115C21.8155 20.9685 23.9395 18.9413 24.1059 16.3789C24.1123 16.2725 24.1219 16.1661 24.1219 16.0581C24.1219 13.3461 21.9235 11.1477 19.2115 11.1477Z" fill="#D0D2D3"/>
<path fill-rule="evenodd" clip-rule="evenodd" d="M29.8389 13.9211C29.7917 13.8363 29.6973 13.7899 29.6013 13.8027C29.3437 13.8363 29.0885 13.8539 28.8421 13.8539C25.7165 13.8539 23.1741 11.3107 23.1741 8.18591C23.1741 6.88591 23.6253 5.61631 24.4453 4.60911C24.5069 4.53391 24.5165 4.42831 24.4685 4.34431C24.4213 4.25951 24.3261 4.21311 24.2309 4.22511C21.2309 4.62671 18.9645 7.19071 18.9149 10.2099C19.0141 10.2051 19.1125 10.2019 19.2117 10.2019C22.4405 10.2019 25.0685 12.8291 25.0685 16.0579C25.0685 16.1907 25.0629 16.3219 25.0541 16.4515C26.9077 16.4515 28.6437 15.6259 29.8157 14.1859C29.8765 14.1107 29.8861 14.0051 29.8389 13.9211Z" fill="#FF9933"/>
</svg>
