<svg width="32" height="32" viewBox="0 0 32 32" fill="none" xmlns="http://www.w3.org/2000/svg">
<path fill-rule="evenodd" clip-rule="evenodd" d="M21.6119 7.25863C21.1807 7.25863 20.7623 7.31463 20.3631 7.41863C19.6175 5.30183 17.5999 3.78503 15.2287 3.78503C12.3223 3.78503 9.94792 6.06183 9.79272 8.92903C9.61432 8.90663 9.43352 8.88983 9.24952 8.88983C6.98872 8.88983 5.15512 10.7226 5.15512 12.9842C5.15512 15.2458 6.98872 17.0794 9.24952 17.0794H21.6119C24.3239 17.0794 26.5223 14.881 26.5223 12.169C26.5223 9.45703 24.3239 7.25863 21.6119 7.25863Z" fill="#D0D2D3"/>
<path fill-rule="evenodd" clip-rule="evenodd" d="M10.1541 19.1141C10.1541 19.1141 7.05165 20.6429 6.54445 20.9621C6.03645 21.2813 5.84285 21.4293 5.59245 21.7973C4.80685 22.9517 5.10685 24.5253 6.26205 25.3101C7.41725 26.0949 8.99005 25.7949 9.77405 24.6405C10.0309 24.2645 10.0725 24.0565 10.2037 23.4205C10.3341 22.7845 10.5517 19.3821 10.5517 19.3821C10.5749 19.1109 10.3957 18.9909 10.1541 19.1141Z" fill="#26A9E0"/>
<path fill-rule="evenodd" clip-rule="evenodd" d="M19.4072 22.3082L16.3712 22.3882L18.34 18.6778C18.372 18.6186 18.3648 18.5498 18.3216 18.4946C18.2784 18.4402 18.2048 18.4066 18.124 18.405L14.7952 18.3586C14.6968 18.3658 14.5984 18.4106 14.5648 18.4914L12.0352 24.565C12.0104 24.625 12.0232 24.6906 12.068 24.7418C12.1128 24.7922 12.1848 24.8226 12.2608 24.8226H12.2624L15.2696 24.805L14.0336 28.725C14.0048 28.817 14.0608 28.913 14.168 28.9514C14.1992 28.9634 14.232 28.969 14.2648 28.969C14.3432 28.969 14.4192 28.9378 14.464 28.8826L19.6136 22.6114C19.6632 22.5514 19.668 22.473 19.624 22.4082C19.5808 22.3442 19.4952 22.3018 19.4072 22.3082Z" fill="#FF9933"/>
<path fill-rule="evenodd" clip-rule="evenodd" d="M23.6432 19.4735C22.0536 19.4735 20.764 20.7623 20.764 22.3527C20.764 23.9423 22.0536 25.2311 23.6432 25.2311C25.2328 25.2311 26.5224 23.9423 26.5224 22.3527C26.5224 20.7623 25.2328 19.4735 23.6432 19.4735Z" fill="#26A9E0"/>
</svg>
