<svg width="32" height="32" viewBox="0 0 32 32" fill="none" xmlns="http://www.w3.org/2000/svg">
<path fill-rule="evenodd" clip-rule="evenodd" d="M21.6111 9.14578C21.1807 9.14578 20.7623 9.20178 20.3631 9.30578C19.6175 7.18898 17.5999 5.67218 15.2279 5.67218C12.3223 5.67218 9.94792 7.94898 9.79272 10.8162C9.61432 10.793 9.43352 10.777 9.24952 10.777C6.98872 10.777 5.15512 12.6098 5.15512 14.8714C5.15512 17.133 6.98872 18.9658 9.24952 18.9658H21.6111C24.3239 18.9658 26.5223 16.7682 26.5223 14.0562C26.5223 11.3434 24.3239 9.14578 21.6111 9.14578Z" fill="#D0D2D3"/>
<path fill-rule="evenodd" clip-rule="evenodd" d="M20.197 20.811C18.6074 20.811 17.3186 22.0998 17.3186 23.6894C17.3186 25.2798 18.6074 26.5686 20.197 26.5686C21.7866 26.5686 23.0762 25.2798 23.0762 23.6894C23.0762 22.0998 21.7866 20.811 20.197 20.811Z" fill="#26A9E0"/>
<path fill-rule="evenodd" clip-rule="evenodd" d="M11.5603 20.811C9.97152 20.811 8.68192 22.0998 8.68192 23.6894C8.68192 25.2798 9.97152 26.5686 11.5603 26.5686C13.1499 26.5686 14.4395 25.2798 14.4395 23.6894C14.4395 22.0998 13.1499 20.811 11.5603 20.811Z" fill="#26A9E0"/>
</svg>
