<svg width="32" height="32" viewBox="0 0 32 32" fill="none" xmlns="http://www.w3.org/2000/svg">
<path fill-rule="evenodd" clip-rule="evenodd" d="M21.6764 13.9618V13.7434C21.6764 13.4146 21.4212 13.1594 21.0748 13.1594C20.7652 13.1594 20.5276 13.4146 20.5276 13.7434V13.9618C20.5276 14.2898 20.7652 14.545 21.0748 14.545C21.4212 14.545 21.6764 14.2898 21.6764 13.9618ZM16.0428 19.2482V19.157C16.0428 18.7562 15.7332 18.4642 15.3324 18.4642C14.9676 18.4642 14.6756 18.7562 14.6756 19.157V19.2482C14.6756 19.649 14.9676 19.9778 15.3324 19.9778C15.7332 19.9778 16.0428 19.649 16.0428 19.2482ZM26.1252 18.6282C25.706 18.6282 25.3412 18.993 25.3412 19.4306V19.5578C25.3412 19.9954 25.706 20.3602 26.1252 20.3602C26.562 20.3602 26.9092 19.9954 26.9092 19.5578V19.4306C26.9092 18.993 26.562 18.6282 26.1252 18.6282ZM17.5748 13.0322V13.0866C17.5748 13.7434 18.0668 14.2714 18.7596 14.2714C19.4156 14.2714 19.9444 13.7434 19.9444 13.0866V13.0322C19.9444 12.3938 19.4156 11.865 18.7596 11.865C18.0668 11.865 17.5748 12.3938 17.5748 13.0322ZM12.67 20.7434C13.254 20.7434 13.746 20.3058 13.746 19.6858V19.485C13.746 18.8658 13.254 18.3914 12.67 18.3914C12.0508 18.3914 11.5948 18.8658 11.5948 19.485V19.6858C11.5948 20.3058 12.0508 20.7434 12.67 20.7434ZM9.35242 20.0138C9.97242 20.0138 10.446 19.5218 10.446 18.8834V18.7018C10.446 18.081 9.97242 17.6082 9.35242 17.6082C8.76922 17.6082 8.29482 18.081 8.29482 18.7018V18.8834C8.29482 19.5218 8.76922 20.0138 9.35242 20.0138ZM11.7772 16.5866C11.7772 16.185 11.4668 15.8762 11.0844 15.8762C10.7012 15.8762 10.41 16.185 10.41 16.5866V16.7138C10.41 17.061 10.7012 17.389 11.0844 17.389C11.4668 17.389 11.7772 17.061 11.7772 16.7138V16.5866ZM21.8044 23.3498C21.3484 23.3498 21.002 23.6962 21.002 24.1338V24.2618C21.002 24.717 21.3484 25.0642 21.8044 25.0642C22.2236 25.0642 22.57 24.717 22.57 24.2618V24.1338C22.57 23.6962 22.2236 23.3498 21.8044 23.3498ZM24.9764 21.545C24.466 21.545 24.01 22.001 24.01 22.5474V22.821C24.01 23.3498 24.466 23.7874 24.9764 23.7874C25.5052 23.7874 25.9604 23.3498 25.9604 22.821V22.5474C25.9604 22.001 25.5052 21.545 24.9764 21.545ZM10.6652 14.7634C11.0476 14.7634 11.394 14.5994 11.6492 14.3258C11.8684 14.0714 12.0324 13.7242 12.0324 13.3602C12.0324 13.013 11.8684 12.6482 11.6492 12.3938C11.394 12.1202 11.0476 11.9922 10.6652 11.9922C10.3004 11.9922 9.97241 12.1202 9.66201 12.3938C9.42521 12.6482 9.27961 13.013 9.27961 13.3602C9.27961 13.7242 9.42521 14.0714 9.66201 14.3258C9.97241 14.5994 10.3004 14.7634 10.6652 14.7634ZM24.01 18.8466C24.6484 17.8082 25.542 15.1826 24.7396 12.1018C24.3924 10.6442 23.4444 9.44097 22.0596 8.65617C20.6012 7.83617 18.8876 7.65377 17.2276 8.16417C17.1916 8.18177 17.1732 8.18177 17.1732 8.18177C15.1132 8.91217 13.7644 10.3338 13.3812 12.2842C13.0532 13.8522 13.418 15.529 14.2204 16.349C14.4932 16.7322 15.4052 17.8266 16.9364 18.1178C17.6292 18.2642 18.7956 18.245 20.1092 17.3346C20.546 16.9698 20.674 16.3314 20.382 15.821C20.0172 15.3106 19.3428 15.201 18.814 15.5474C18.2852 15.9306 17.7756 16.0762 17.3556 15.985C16.5172 15.8394 15.97 15.0186 15.97 15.0186C15.9156 14.9458 15.8428 14.8914 15.7876 14.837C15.6236 14.673 15.2772 13.6882 15.514 12.5938C15.7876 11.5002 16.6084 10.6794 17.8476 10.2242C18.942 9.89617 20.0908 9.98737 21.002 10.5522C21.8404 11.0266 22.406 11.7554 22.6428 12.6482C23.2804 15.1106 22.5148 17.1338 22.1684 17.7354C18.3404 23.9338 5.99801 22.7666 5.87001 22.7482C5.25001 22.6762 4.72201 23.0946 4.66681 23.6962C4.57561 24.2978 5.03161 24.8266 5.65161 24.881C5.77881 24.9002 6.85481 24.9906 8.42281 24.9906C12.6884 24.9906 20.6924 24.2618 24.01 18.8466Z" fill="#FF9933"/>
</svg>
