<svg width="32" height="32" viewBox="0 0 32 32" fill="none" xmlns="http://www.w3.org/2000/svg">
<path fill-rule="evenodd" clip-rule="evenodd" d="M12.2009 20.1981C12.2009 20.1981 10.7169 20.9293 10.4737 21.0821C10.2297 21.2357 10.1377 21.3061 10.0177 21.4821C9.64254 22.0349 9.78574 22.7877 10.3385 23.1629C10.8913 23.5389 11.6441 23.3957 12.0185 22.8429C12.1417 22.6629 12.1617 22.5637 12.2241 22.2589C12.2865 21.9549 12.3905 20.3269 12.3905 20.3269C12.4025 20.1973 12.3169 20.1389 12.2009 20.1981Z" fill="#26A9E0"/>
<path fill-rule="evenodd" clip-rule="evenodd" d="M16.9385 24.1973C16.9385 24.1973 15.4545 24.9285 15.2121 25.0813C14.9681 25.2341 14.8761 25.3053 14.7561 25.4813C14.3809 26.0341 14.5233 26.7869 15.0761 27.1621C15.6289 27.5381 16.3817 27.3949 16.7569 26.8421C16.8801 26.6621 16.9001 26.5629 16.9625 26.2581C17.0249 25.9541 17.1289 24.3253 17.1289 24.3253C17.1401 24.1957 17.0545 24.1381 16.9385 24.1973Z" fill="#26A9E0"/>
<path fill-rule="evenodd" clip-rule="evenodd" d="M21.765 20.1981C21.765 20.1981 20.281 20.9293 20.0378 21.0821C19.7938 21.2357 19.7018 21.3061 19.5818 21.4821C19.2066 22.0349 19.3498 22.7877 19.9026 23.1629C20.4554 23.5389 21.2082 23.3957 21.5834 22.8429C21.7066 22.6629 21.7266 22.5637 21.7882 22.2589C21.8506 21.9549 21.9546 20.3269 21.9546 20.3269C21.9666 20.1973 21.881 20.1389 21.765 20.1981Z" fill="#26A9E0"/>
<path fill-rule="evenodd" clip-rule="evenodd" d="M12.2009 24.1973C12.2009 24.1973 10.7169 24.9285 10.4737 25.0813C10.2297 25.2341 10.1377 25.3045 10.0177 25.4813C9.64254 26.0341 9.78574 26.7869 10.3385 27.1621C10.8913 27.5381 11.6441 27.3941 12.0185 26.8421C12.1417 26.6621 12.1617 26.5629 12.2241 26.2573C12.2865 25.9533 12.3905 24.3253 12.3905 24.3253C12.4025 24.1957 12.3169 24.1381 12.2009 24.1973Z" fill="#26A9E0"/>
<path fill-rule="evenodd" clip-rule="evenodd" d="M21.765 24.1973C21.765 24.1973 20.281 24.9285 20.0378 25.0813C19.7938 25.2341 19.7018 25.3045 19.5818 25.4813C19.2066 26.0341 19.3498 26.7869 19.9026 27.1621C20.4554 27.5381 21.2082 27.3941 21.5834 26.8421C21.7066 26.6621 21.7266 26.5629 21.7882 26.2573C21.8506 25.9533 21.9546 24.3253 21.9546 24.3253C21.9666 24.1957 21.881 24.1381 21.765 24.1973Z" fill="#26A9E0"/>
<path fill-rule="evenodd" clip-rule="evenodd" d="M26.3306 20.1981C26.3306 20.1981 24.8466 20.9293 24.6034 21.0821C24.3594 21.2357 24.2674 21.3061 24.1474 21.4821C23.7722 22.0349 23.9154 22.7877 24.4682 23.1629C25.021 23.5389 25.7738 23.3957 26.149 22.8429C26.2722 22.6629 26.2922 22.5637 26.3538 22.2589C26.4162 21.9549 26.5202 20.3269 26.5202 20.3269C26.5322 20.1973 26.4466 20.1389 26.3306 20.1981Z" fill="#26A9E0"/>
<path fill-rule="evenodd" clip-rule="evenodd" d="M7.54702 20.1981C7.54702 20.1981 6.06302 20.9293 5.81982 21.0821C5.57662 21.2357 5.48382 21.3061 5.36382 21.4821C4.98862 22.0349 5.13182 22.7877 5.68542 23.1629C6.23742 23.5389 6.99022 23.3957 7.36542 22.8429C7.48862 22.6629 7.50862 22.5637 7.57102 22.2589C7.63342 21.9549 7.73742 20.3269 7.73742 20.3269C7.74862 20.1973 7.66302 20.1389 7.54702 20.1981Z" fill="#26A9E0"/>
<path fill-rule="evenodd" clip-rule="evenodd" d="M22.1346 8.43328C21.705 8.43328 21.2874 8.48928 20.8898 8.59328C20.1458 6.48208 18.1346 4.96848 15.7682 4.96848C12.8698 4.96848 10.5018 7.23968 10.3474 10.0997C10.169 10.0765 9.98897 10.0597 9.80577 10.0597C7.55057 10.0597 5.72177 11.8885 5.72177 14.1445C5.72177 16.3997 7.55057 18.2277 9.80577 18.2277H10.6194L13.9274 10.2861C14.0626 9.96608 14.389 9.75008 14.7826 9.72368L19.7938 9.79168C20.0922 9.79568 20.3738 9.93088 20.549 10.1533C20.7594 10.4205 20.793 10.7757 20.6322 11.0765L18.1778 15.7029L21.6722 15.6109C22.009 15.5949 22.3314 15.7509 22.5162 16.0237C22.7274 16.3333 22.7098 16.7429 22.4674 17.0381L21.4898 18.2277H22.1346C24.8394 18.2277 27.0322 16.0357 27.0322 13.3309C27.0322 10.6253 24.8394 8.43328 22.1346 8.43328Z" fill="#D0D2D3"/>
<path fill-rule="evenodd" clip-rule="evenodd" d="M21.2057 16.3008L16.9849 16.4144L19.7225 11.1408C19.7657 11.056 19.7561 10.9584 19.6961 10.8808C19.6361 10.8024 19.5337 10.7552 19.4225 10.7528L14.7945 10.6872C14.6577 10.6968 14.5209 10.7608 14.4745 10.8752L10.9561 19.5088C10.9225 19.5936 10.9393 19.6872 11.0017 19.7608C11.0641 19.8328 11.1641 19.8752 11.2713 19.8752H11.2729L15.4545 19.8504L13.7353 25.4216C13.6945 25.5528 13.7737 25.6888 13.9217 25.7448C13.9649 25.7608 14.0113 25.7688 14.0569 25.7688C14.1657 25.7688 14.2705 25.7248 14.3329 25.6456L21.4921 16.7328C21.5617 16.6464 21.5673 16.5344 21.5065 16.444C21.4465 16.352 21.3281 16.2928 21.2057 16.3008Z" fill="#FF9933"/>
</svg>
