<svg width="32" height="32" viewBox="0 0 32 32" fill="none" xmlns="http://www.w3.org/2000/svg">
<path fill-rule="evenodd" clip-rule="evenodd" d="M27.9428 18.7126C27.9332 18.7126 27.9236 18.7126 27.9132 18.7118C24.0732 18.5358 20.2612 18.0958 16.5844 17.4054C12.7492 16.6846 10.8724 16.0646 9.88276 14.3006C8.98836 12.7046 8.86756 10.2766 10.366 8.72535C11.686 7.35895 14.2308 6.80695 15.918 8.16695C16.606 8.72215 17.0364 9.51095 17.1308 10.3894C17.2252 11.267 16.9716 12.1294 16.4172 12.8182C15.9196 13.4358 15.0572 13.8286 14.1676 13.8414C13.4356 13.863 12.8228 13.6094 12.4332 13.1558C12.0084 12.6606 11.83 11.8758 11.9796 11.1566C12.098 10.5886 12.406 10.1582 12.8468 9.94455C13.55 9.60375 14.4932 9.86695 15.1964 10.5982C15.4412 10.8526 15.4332 11.2566 15.1788 11.5006C14.9244 11.7446 14.5204 11.7366 14.2764 11.483C13.9292 11.1214 13.5468 11.027 13.4028 11.0934C13.3308 11.1286 13.2628 11.255 13.2292 11.4166C13.1628 11.735 13.2388 12.1342 13.402 12.3246C13.5364 12.4806 13.8036 12.5606 14.1476 12.5654C14.6524 12.5582 15.1652 12.3374 15.4236 12.0174C15.7644 11.595 15.9204 11.0646 15.862 10.5254C15.8044 9.98615 15.5396 9.50135 15.1172 9.16135C14.0236 8.27975 12.1924 8.67175 11.2844 9.61095C10.2292 10.7038 10.3484 12.5214 10.9964 13.6774C11.6588 14.859 13.0196 15.4358 16.8204 16.151C20.4388 16.831 24.1908 17.263 27.9716 17.4366C28.3236 17.4534 28.5956 17.7518 28.5796 18.103C28.5644 18.4454 28.282 18.7126 27.9428 18.7126Z" fill="#FF9933"/>
<path fill-rule="evenodd" clip-rule="evenodd" d="M17.2127 25.7462C15.7823 25.7462 14.2943 24.7814 13.7199 23.3446C13.0343 21.6318 13.8423 19.7878 14.9503 18.9214C15.8815 18.1942 17.0367 18.1462 20.5615 18.6934C22.4639 18.9894 24.3935 19.3606 26.2975 19.7966C26.6415 19.8758 26.8559 20.2182 26.7767 20.5622C26.6983 20.9046 26.3607 21.119 26.0127 21.0406C24.1375 20.611 22.2375 20.2454 20.3655 19.9542C16.7447 19.3934 16.1823 19.5806 15.7367 19.927C14.9839 20.515 14.4671 21.7774 14.9047 22.871C15.3615 24.011 16.7135 24.7342 17.7463 24.3862C18.5135 24.127 19.2855 23.2526 19.0935 22.5558C18.9935 22.191 18.6263 21.8006 18.2199 21.6294C17.9959 21.5342 17.7943 21.5198 17.6663 21.591C17.4319 21.7198 17.2503 22.2174 17.3527 22.8262C17.4111 23.1734 17.1767 23.5022 16.8295 23.5614C16.4815 23.6158 16.1519 23.3846 16.0943 23.0366C15.9063 21.9222 16.2911 20.891 17.0511 20.4726C17.5311 20.2086 18.1223 20.203 18.7167 20.4542C19.4879 20.7798 20.1191 21.4718 20.3239 22.2166C20.7231 23.6646 19.5247 25.1326 18.1551 25.5958C17.8511 25.6974 17.5335 25.7462 17.2127 25.7462Z" fill="#FF9933"/>
<path fill-rule="evenodd" clip-rule="evenodd" d="M21.2065 18.1438C21.0689 18.1438 20.9297 18.099 20.8129 18.0078C19.4865 16.9662 18.9329 15.2614 19.4361 13.7646C20.0337 11.9854 21.9897 10.843 23.6225 11.319C24.8673 11.6806 26.0625 12.9454 25.8209 14.3566C25.6961 15.0846 25.1841 15.7894 24.4841 16.1934C23.9121 16.5262 23.3145 16.6054 22.8009 16.4166C22.3105 16.2358 21.8729 15.7934 21.6569 15.2598C21.4753 14.8102 21.4769 14.3542 21.6601 13.9742C21.8137 13.6574 22.1953 13.5246 22.5121 13.6782C22.8297 13.831 22.9625 14.2134 22.8089 14.5302C22.7897 14.5694 22.7921 14.6622 22.8401 14.7814C22.9297 15.0022 23.1129 15.171 23.2401 15.2182C23.3841 15.271 23.6161 15.2222 23.8441 15.0902C24.2137 14.8758 24.5025 14.4942 24.5625 14.1406C24.6865 13.4214 23.8897 12.7262 23.2657 12.5438C22.2745 12.2598 21.0289 13.031 20.6457 14.171C20.3145 15.1574 20.6985 16.295 21.6009 17.003C21.8777 17.2214 21.9265 17.6222 21.7089 17.899C21.5833 18.0606 21.3953 18.1438 21.2065 18.1438Z" fill="#FF9933"/>
<path fill-rule="evenodd" clip-rule="evenodd" d="M5.13457 11.9571V12.0083C5.13457 12.6203 5.59297 13.1131 6.23937 13.1131C6.85137 13.1131 7.34417 12.6203 7.34417 12.0083V11.9571C7.34417 11.3627 6.85137 10.8699 6.23937 10.8699C5.59297 10.8699 5.13457 11.3627 5.13457 11.9571Z" fill="#FF9933"/>
<path fill-rule="evenodd" clip-rule="evenodd" d="M7.57207 15.8414V15.8918C7.57207 16.5038 8.03047 16.9966 8.67687 16.9966C9.28887 16.9966 9.78167 16.5038 9.78167 15.8918V15.8414C9.78167 15.2462 9.28887 14.7534 8.67687 14.7534C8.03047 14.7534 7.57207 15.2462 7.57207 15.8414Z" fill="#FF9933"/>
<path fill-rule="evenodd" clip-rule="evenodd" d="M10.3689 19.4383V19.4895C10.3689 20.1015 10.8273 20.5943 11.4737 20.5943C12.0857 20.5943 12.5785 20.1015 12.5785 19.4895V19.4383C12.5785 18.8439 12.0857 18.3511 11.4737 18.3511C10.8273 18.3511 10.3689 18.8439 10.3689 19.4383Z" fill="#FF9933"/>
<path fill-rule="evenodd" clip-rule="evenodd" d="M10.7061 23.5219V23.5731C10.7061 24.1851 11.1653 24.6779 11.8109 24.6779C12.4229 24.6779 12.9157 24.1851 12.9157 23.5731V23.5219C12.9157 22.9275 12.4229 22.4347 11.8109 22.4347C11.1653 22.4347 10.7061 22.9275 10.7061 23.5219Z" fill="#FF9933"/>
<path fill-rule="evenodd" clip-rule="evenodd" d="M4.58066 18.0219V18.0731C4.58066 18.6851 5.03986 19.1779 5.68546 19.1779C6.29746 19.1779 6.79026 18.6851 6.79026 18.0731V18.0219C6.79026 17.4275 6.29746 16.9347 5.68546 16.9347C5.03986 16.9347 4.58066 17.4275 4.58066 18.0219Z" fill="#FF9933"/>
<path fill-rule="evenodd" clip-rule="evenodd" d="M7.1076 21.8406V21.891C7.1076 22.5038 7.56681 22.9966 8.21241 22.9966C8.82441 22.9966 9.31721 22.5038 9.31721 21.891V21.8406C9.31721 21.2462 8.82441 20.7534 8.21241 20.7534C7.56681 20.7534 7.1076 21.2462 7.1076 21.8406Z" fill="#FF9933"/>
</svg>
