<svg width="32" height="32" viewBox="0 0 32 32" fill="none" xmlns="http://www.w3.org/2000/svg">
<path fill-rule="evenodd" clip-rule="evenodd" d="M16.1768 25.4742L14.5296 24.8286L15.8144 23.6126C15.9264 23.507 15.9312 23.3278 15.8248 23.2166L15.3064 22.6686C15.2008 22.5574 15.0224 22.5526 14.9104 22.6582L13.7424 23.7638L13.4352 22.1854C13.4056 22.0334 13.2576 21.9334 13.1064 21.963L12.3656 22.1078C12.2144 22.1374 12.1144 22.2854 12.144 22.4366L12.452 24.0158L10.9544 23.4294C10.8104 23.3726 10.6472 23.4446 10.5912 23.5878L10.316 24.291C10.2592 24.4334 10.3312 24.5966 10.4752 24.6542L12.1216 25.2982L10.8376 26.5142C10.7256 26.6206 10.7208 26.7982 10.8264 26.911L11.3456 27.4582C11.4512 27.5702 11.6296 27.575 11.7416 27.4694L12.9096 26.363L13.2168 27.9422C13.2464 28.0934 13.3944 28.1926 13.5456 28.163L14.2864 28.0198C14.4376 27.9902 14.5376 27.8422 14.508 27.691L14.2008 26.1118L15.6976 26.6982C15.8416 26.755 16.004 26.6838 16.0608 26.5398L16.336 25.8366C16.392 25.6926 16.3208 25.5294 16.1768 25.4742Z" fill="#26A9E0"/>
<path fill-rule="evenodd" clip-rule="evenodd" d="M30.2698 12.2172L28.8106 11.8532C28.469 11.7676 28.1194 11.9772 28.0338 12.3188L28.0258 12.3484C27.9402 12.69 28.1506 13.0396 28.4922 13.1252L29.9514 13.49C30.2938 13.5756 30.6434 13.366 30.7282 13.0236L30.7362 12.9948C30.821 12.6524 30.6114 12.3028 30.2698 12.2172Z" fill="#FF9933"/>
<path fill-rule="evenodd" clip-rule="evenodd" d="M28.5335 5.29574L28.5119 5.27494C28.2583 5.02934 27.8511 5.03654 27.6055 5.29014L26.5606 6.37094C26.315 6.62454 26.3222 7.03174 26.5758 7.27734L26.5974 7.29814C26.8502 7.54294 27.2583 7.53654 27.5031 7.28294L28.5487 6.20134C28.7935 5.94774 28.7871 5.54054 28.5335 5.29574Z" fill="#FF9933"/>
<path fill-rule="evenodd" clip-rule="evenodd" d="M20.6877 5.57895C20.7845 5.91815 21.1413 6.11575 21.4797 6.01895L21.5093 6.01095C21.8477 5.91335 22.0461 5.55735 21.9493 5.21815L21.5357 3.77175C21.4381 3.43335 21.0821 3.23575 20.7429 3.33255L20.7141 3.34055C20.3749 3.43735 20.1773 3.79415 20.2741 4.13255L20.6877 5.57895Z" fill="#FF9933"/>
<path fill-rule="evenodd" clip-rule="evenodd" d="M19.16 6.49577L18.0784 5.45017C17.8256 5.20537 17.4176 5.21177 17.1728 5.46537L17.152 5.48697C16.9072 5.74057 16.9136 6.14777 17.1672 6.39337L18.2488 7.43897C18.5016 7.68377 18.9096 7.67657 19.1544 7.42377L19.176 7.40137C19.4208 7.14777 19.4136 6.74057 19.16 6.49577Z" fill="#FF9933"/>
<path fill-rule="evenodd" clip-rule="evenodd" d="M28.7088 15.7281L27.6272 14.6825C27.3744 14.4385 26.9664 14.4449 26.7216 14.6977L26.7008 14.7193C26.456 14.9737 26.4624 15.3801 26.716 15.6257L27.7968 16.6713C28.0504 16.9161 28.4584 16.9097 28.7032 16.6561L28.7248 16.6345C28.9696 16.3809 28.9624 15.9737 28.7088 15.7281Z" fill="#FF9933"/>
<path fill-rule="evenodd" clip-rule="evenodd" d="M27.9885 9.63169C28.0853 9.97089 28.4413 10.1685 28.7805 10.0717L30.2261 9.65809C30.5653 9.56129 30.7637 9.20449 30.6669 8.86529L30.6581 8.83649C30.5613 8.49809 30.2053 8.29969 29.8661 8.39729L28.4197 8.81089C28.0813 8.90769 27.8829 9.26369 27.9797 9.60289L27.9885 9.63169Z" fill="#FF9933"/>
<path fill-rule="evenodd" clip-rule="evenodd" d="M24.1963 5.96529L24.2259 5.97249C24.5675 6.05809 24.9171 5.84849 25.0027 5.50609L25.3675 4.04769C25.4531 3.70529 25.2435 3.35569 24.9011 3.27009L24.8723 3.26289C24.5299 3.17729 24.1803 3.38689 24.0955 3.72929L23.7299 5.18849C23.6451 5.53009 23.8547 5.87969 24.1963 5.96529Z" fill="#FF9933"/>
<path fill-rule="evenodd" clip-rule="evenodd" d="M23.937 7.06648C21.877 6.55128 19.793 7.68648 19.0762 9.63528C19.117 9.63448 19.1562 9.63208 19.197 9.63208C22.1458 9.63208 24.6186 11.7049 25.2378 14.4705C26.0522 13.9217 26.6754 13.0857 26.9322 12.0593C27.4842 9.85288 26.1426 7.61768 23.937 7.06648Z" fill="#FF9933"/>
<path fill-rule="evenodd" clip-rule="evenodd" d="M19.1967 10.6797C18.7447 10.6797 18.3071 10.7381 17.8895 10.8477C17.1071 8.62933 14.9943 7.03973 12.5095 7.03973C9.46393 7.03973 6.97673 9.42613 6.81353 12.4301C6.62713 12.4053 6.43833 12.3885 6.24553 12.3885C3.87593 12.3885 1.95513 14.3085 1.95513 16.6789C1.95513 19.0477 3.87593 20.9685 6.24553 20.9685H19.1967C21.9247 20.9685 24.1503 18.8445 24.3247 16.1605C24.3319 16.0485 24.3415 15.9373 24.3415 15.8245C24.3415 12.9821 22.0375 10.6797 19.1967 10.6797Z" fill="#D0D2D3"/>
</svg>
