<svg width="32" height="32" viewBox="0 0 32 32" fill="none" xmlns="http://www.w3.org/2000/svg">
<path fill-rule="evenodd" clip-rule="evenodd" d="M16.092 21.1475C18.527 21.1475 20.501 19.1725 20.501 16.7375C20.501 14.3025 18.527 12.3285 16.092 12.3285C13.656 12.3285 11.682 14.3025 11.682 16.7375C11.682 19.1725 13.656 21.1475 16.092 21.1475ZM11.405 25.7965C10.471 25.3265 9.59998 24.7405 8.81298 24.0505C7.13698 22.7085 5.93498 20.8955 5.45998 18.8415C5.20098 17.9365 5.07098 16.9995 5.07098 16.0575C5.07098 9.89649 10.609 4.90149 17.439 4.90149C22.242 4.90149 26.405 7.37149 28.454 10.9785C26.502 9.14549 23.757 8.00449 20.715 8.00449C20.638 8.00449 20.56 8.00449 20.482 8.00649C21.416 8.47749 22.287 9.06349 23.074 9.75249C24.75 11.0955 25.952 12.9085 26.427 14.9615C26.681 15.8515 26.817 16.7855 26.817 17.7465C26.817 23.9075 21.279 28.9015 14.448 28.9015C9.64498 28.9015 5.48198 26.4325 3.43298 22.8255C5.38598 24.6585 8.12998 25.7985 11.172 25.7985C11.249 25.7985 11.327 25.7985 11.405 25.7965Z" fill="#00ADEE"/>
</svg>
