<svg width="32" height="32" viewBox="0 0 32 32" fill="none" xmlns="http://www.w3.org/2000/svg">
<path fill-rule="evenodd" clip-rule="evenodd" d="M7.26311 7.78129C7.26311 8.46369 6.70951 9.01809 6.02791 9.01809C5.34391 9.01809 4.79111 8.46369 4.79111 7.78129C4.79111 7.09969 5.34391 6.54529 6.02791 6.54529C6.70951 6.54529 7.26311 7.09969 7.26311 7.78129Z" fill="#FF9933"/>
<path fill-rule="evenodd" clip-rule="evenodd" d="M16.9646 7.78129C16.9646 8.46369 16.4102 9.01809 15.7294 9.01809C15.0446 9.01809 14.4918 8.46369 14.4918 7.78129C14.4918 7.09969 15.0446 6.54529 15.7294 6.54529C16.4102 6.54529 16.9646 7.09969 16.9646 7.78129Z" fill="#FF9933"/>
<path fill-rule="evenodd" clip-rule="evenodd" d="M26.6658 7.78129C26.6658 8.46369 26.1114 9.01809 25.4306 9.01809C24.7458 9.01809 24.193 8.46369 24.193 7.78129C24.193 7.09969 24.7458 6.54529 25.4306 6.54529C26.1114 6.54529 26.6658 7.09969 26.6658 7.78129Z" fill="#FF9933"/>
<path fill-rule="evenodd" clip-rule="evenodd" d="M7.26311 26.0383C7.26311 26.7207 6.70951 27.2743 6.02791 27.2743C5.34391 27.2743 4.79111 26.7207 4.79111 26.0383C4.79111 25.3567 5.34391 24.8015 6.02791 24.8015C6.70951 24.8015 7.26311 25.3567 7.26311 26.0383Z" fill="#FF9933"/>
<path fill-rule="evenodd" clip-rule="evenodd" d="M16.9646 26.0383C16.9646 26.7207 16.4102 27.2743 15.7294 27.2743C15.0446 27.2743 14.4918 26.7207 14.4918 26.0383C14.4918 25.3567 15.0446 24.8015 15.7294 24.8015C16.4102 24.8015 16.9646 25.3567 16.9646 26.0383Z" fill="#FF9933"/>
<path fill-rule="evenodd" clip-rule="evenodd" d="M26.6658 26.0383C26.6658 26.7207 26.1114 27.2743 25.4306 27.2743C24.7458 27.2743 24.193 26.7207 24.193 26.0383C24.193 25.3567 24.7458 24.8015 25.4306 24.8015C26.1114 24.8015 26.6658 25.3567 26.6658 26.0383Z" fill="#FF9933"/>
<path fill-rule="evenodd" clip-rule="evenodd" d="M23.5791 18.9711C22.9887 19.6503 22.1719 19.9887 21.1271 19.9887C19.7879 19.9887 18.4135 18.9623 17.0063 16.9103C18.4135 14.8575 19.7879 13.8303 21.1271 13.8303C22.1719 13.8303 22.9887 14.1695 23.5791 14.8495C24.0903 15.4255 24.3455 16.1127 24.3455 16.9103C24.3455 17.7071 24.0903 18.3943 23.5791 18.9711ZM10.3303 19.9887C9.28552 19.9887 8.46872 19.6503 7.87832 18.9711C7.36712 18.3943 7.11112 17.7071 7.11112 16.9103C7.11112 16.1127 7.36712 15.4255 7.87832 14.8495C8.46872 14.1695 9.28552 13.8303 10.3303 13.8303C11.6695 13.8303 13.0439 14.8575 14.4519 16.9103C13.0439 18.9623 11.6695 19.9887 10.3303 19.9887ZM25.3167 13.4231C24.3519 12.4223 22.9551 11.9215 21.1271 11.9215C19.3559 11.9215 17.5559 12.9903 15.7287 15.1287C13.9007 12.9903 12.1015 11.9215 10.3303 11.9215C8.50232 11.9215 7.10552 12.4223 6.14072 13.4231C5.26632 14.3143 4.82952 15.4767 4.82952 16.9103C4.82952 18.3439 5.26632 19.5055 6.14072 20.3959C7.10552 21.3967 8.50232 21.8975 10.3303 21.8975C12.1015 21.8975 13.9007 20.8287 15.7287 18.6911C17.5559 20.8287 19.3559 21.8975 21.1271 21.8975C22.9551 21.8975 24.3519 21.3967 25.3167 20.3959C26.1911 19.5055 26.6279 18.3439 26.6279 16.9103C26.6279 15.4767 26.1911 14.3143 25.3167 13.4231Z" fill="#FF9933"/>
</svg>
