<svg width="32" height="32" viewBox="0 0 32 32" fill="none" xmlns="http://www.w3.org/2000/svg">
<path fill-rule="evenodd" clip-rule="evenodd" d="M21.6115 8.5852C21.1803 8.5852 20.7627 8.6412 20.3635 8.7452C19.6171 6.6284 17.6003 5.1116 15.2283 5.1116C12.3219 5.1116 9.94751 7.3884 9.79231 10.2556C9.61391 10.2332 9.43391 10.2164 9.24911 10.2164C6.98831 10.2164 5.15471 12.0492 5.15471 14.3108C5.15471 16.5724 6.98831 18.4052 9.24911 18.4052H21.6115C24.3235 18.4052 26.5219 16.2076 26.5219 13.4956C26.5219 10.7828 24.3235 8.5852 21.6115 8.5852Z" fill="#D0D2D3"/>
<path fill-rule="evenodd" clip-rule="evenodd" d="M15.2198 26.5883L14.2542 26.2099L15.007 25.4979C15.0734 25.4355 15.0758 25.3307 15.0134 25.2651L14.7094 24.9435C14.6478 24.8779 14.543 24.8747 14.4774 24.9379L13.7926 25.5859L13.6118 24.6603C13.595 24.5715 13.5078 24.5123 13.419 24.5307L12.9854 24.6147C12.8966 24.6323 12.8374 24.7187 12.855 24.8075L13.0358 25.7339L12.1574 25.3899C12.0726 25.3563 11.9774 25.3987 11.9438 25.4827L11.783 25.8947C11.7502 25.9779 11.7918 26.0739 11.8758 26.1067L12.8422 26.4851L12.0886 27.1987C12.023 27.2611 12.0198 27.3659 12.083 27.4315L12.3862 27.7523C12.4486 27.8179 12.5534 27.8211 12.619 27.7587L13.3038 27.1099L13.4846 28.0363C13.5014 28.1251 13.5886 28.1827 13.6774 28.1659L14.111 28.0811C14.1998 28.0643 14.2582 27.9771 14.2414 27.8883L14.0606 26.9635L14.9382 27.3059C15.023 27.3395 15.119 27.2979 15.1518 27.2131L15.3134 26.8019C15.3462 26.7171 15.3038 26.6211 15.2198 26.5883Z" fill="#26A9E0"/>
<path fill-rule="evenodd" clip-rule="evenodd" d="M15.2198 22.1634L14.2542 21.785L15.007 21.0722C15.0734 21.0106 15.0758 20.9058 15.0134 20.8402L14.7094 20.5186C14.6478 20.453 14.543 20.4498 14.4774 20.513L13.7926 21.161L13.6118 20.2346C13.595 20.1466 13.5078 20.0874 13.419 20.105L12.9854 20.1898C12.8966 20.2074 12.8374 20.2938 12.855 20.3818L13.0358 21.3082L12.1574 20.9642C12.0726 20.9314 11.9774 20.9738 11.9438 21.057L11.783 21.4698C11.7502 21.553 11.7918 21.649 11.8758 21.6818L12.8422 22.0602L12.0886 22.7738C12.023 22.8362 12.0198 22.9402 12.083 23.0066L12.3862 23.3274C12.4486 23.393 12.5534 23.3962 12.619 23.3338L13.3038 22.685L13.4846 23.6114C13.5014 23.6994 13.5886 23.7578 13.6774 23.741L14.111 23.6562C14.1998 23.6386 14.2582 23.5522 14.2414 23.4634L14.0606 22.5378L14.9382 22.881C15.023 22.9138 15.119 22.873 15.1518 22.7882L15.3134 22.377C15.3462 22.2922 15.3038 22.1962 15.2198 22.1634Z" fill="#26A9E0"/>
<path fill-rule="evenodd" clip-rule="evenodd" d="M19.8006 26.5883L18.835 26.2099L19.5878 25.4979C19.6542 25.4355 19.6566 25.3307 19.5942 25.2651L19.2902 24.9435C19.2286 24.8779 19.1238 24.8747 19.0582 24.9379L18.3734 25.5859L18.1934 24.6603C18.1758 24.5715 18.0886 24.5123 18.0006 24.5307L17.5662 24.6147C17.4774 24.6323 17.4182 24.7187 17.4358 24.8075L17.6166 25.7339L16.7382 25.3899C16.6542 25.3563 16.5582 25.3987 16.5246 25.4827L16.3638 25.8947C16.331 25.9779 16.3726 26.0739 16.4566 26.1067L17.423 26.4851L16.6694 27.1987C16.6038 27.2611 16.6006 27.3659 16.6638 27.4315L16.967 27.7523C17.0294 27.8179 17.1342 27.8211 17.2006 27.7587L17.8846 27.1099L18.0654 28.0363C18.083 28.1251 18.1694 28.1827 18.2582 28.1659L18.6926 28.0811C18.7806 28.0643 18.839 27.9771 18.8222 27.8883L18.6414 26.9635L19.5198 27.3059C19.6038 27.3395 19.6998 27.2979 19.7326 27.2131L19.8942 26.8019C19.927 26.7171 19.8846 26.6211 19.8006 26.5883Z" fill="#26A9E0"/>
<path fill-rule="evenodd" clip-rule="evenodd" d="M19.8006 22.1634L18.835 21.785L19.5878 21.0722C19.6542 21.0106 19.6566 20.9058 19.5942 20.8402L19.2902 20.5186C19.2286 20.453 19.1238 20.4498 19.0582 20.513L18.3734 21.161L18.1934 20.2346C18.1758 20.1466 18.0886 20.0874 18.0006 20.105L17.5662 20.1898C17.4774 20.2074 17.4182 20.2938 17.4358 20.3818L17.6166 21.3082L16.7382 20.9642C16.6542 20.9314 16.5582 20.9738 16.5246 21.057L16.3638 21.4698C16.331 21.553 16.3726 21.649 16.4566 21.6818L17.423 22.0602L16.6694 22.7738C16.6038 22.8362 16.6006 22.9402 16.6638 23.0066L16.967 23.3274C17.0294 23.393 17.1342 23.3962 17.2006 23.3338L17.8846 22.685L18.0654 23.6114C18.083 23.6994 18.1694 23.7578 18.2582 23.741L18.6926 23.6562C18.7806 23.6386 18.839 23.5522 18.8222 23.4634L18.6414 22.5378L19.5198 22.881C19.6038 22.9138 19.6998 22.873 19.7326 22.7882L19.8942 22.377C19.927 22.2922 19.8846 22.1962 19.8006 22.1634Z" fill="#26A9E0"/>
</svg>
