<svg width="32" height="32" viewBox="0 0 32 32" fill="none" xmlns="http://www.w3.org/2000/svg">
<path fill-rule="evenodd" clip-rule="evenodd" d="M21.6119 8.92816C21.1807 8.92816 20.7623 8.98416 20.3631 9.08816C19.6175 6.97136 17.5999 5.45456 15.2287 5.45456C12.3223 5.45456 9.94792 7.73136 9.79272 10.5986C9.61432 10.5754 9.43352 10.5594 9.24952 10.5594C6.98872 10.5594 5.15512 12.3922 5.15512 14.6538C5.15512 16.9154 6.98872 18.7482 9.24952 18.7482H21.6119C24.3239 18.7482 26.5223 16.5506 26.5223 13.8386C26.5223 11.1258 24.3239 8.92816 21.6119 8.92816Z" fill="#D0D2D3"/>
<path fill-rule="evenodd" clip-rule="evenodd" d="M21.665 20.7352C21.665 20.7352 18.5626 22.264 18.0554 22.5832C17.5466 22.9024 17.3538 23.0504 17.1034 23.4184C16.3178 24.5736 16.6178 26.1464 17.773 26.9312C18.9274 27.7168 20.5002 27.416 21.285 26.2616C21.5418 25.8856 21.5834 25.6784 21.7146 25.0416C21.845 24.4056 22.0618 21.0032 22.0618 21.0032C22.085 20.7328 21.9066 20.612 21.665 20.7352Z" fill="#26A9E0"/>
<path fill-rule="evenodd" clip-rule="evenodd" d="M14.2119 24.1715L12.5647 23.5267L13.8495 22.3107C13.9623 22.2051 13.9655 22.0259 13.8599 21.9147L13.3415 21.3667C13.2351 21.2547 13.0575 21.2507 12.9455 21.3563L11.7783 22.4619L11.4703 20.8835C11.4407 20.7315 11.2927 20.6315 11.1407 20.6611L10.4007 20.8059C10.2495 20.8355 10.1495 20.9835 10.1791 21.1347L10.4871 22.7131L8.9895 22.1267C8.8455 22.0707 8.6823 22.1419 8.6263 22.2859L8.3511 22.9883C8.2943 23.1315 8.3655 23.2947 8.5095 23.3515L10.1567 23.9963L8.8719 25.2123C8.7607 25.3187 8.7559 25.4971 8.8623 25.6083L9.3807 26.1563C9.4863 26.2691 9.6639 26.2731 9.7767 26.1675L10.9439 25.0619L11.2519 26.6403C11.2815 26.7915 11.4295 26.8907 11.5807 26.8619L12.3215 26.7179C12.4727 26.6883 12.5719 26.5395 12.5431 26.3883L12.2351 24.8099L13.7319 25.3963C13.8759 25.4523 14.0399 25.3811 14.0951 25.2379L14.3711 24.5347C14.4271 24.3907 14.3559 24.2275 14.2119 24.1715Z" fill="#26A9E0"/>
</svg>
